EMG
version=1
nRows=38
nColumns=17
inDegrees=no
endheader
time	EMG01_right_gast_med	EMG02_right_glut_max	EMG03_left_gast_med	EMG04_left_glut_max	EMG05_right_glut_med	EMG06_right_bic_fem	EMG07_right_rect_fem	EMG08_right_vast_lat	EMG09_right_vast_med	EMG10_right_tens_fasc_lat	EMG11_left_glut_med	EMG12_left_bic_fem	EMG13_left_rect_fem	EMG14_left_vast_lat	EMG15_left_vast_med	EMG16_left_tens_fasc_lat
      1.89000000	     55.86906815	    -11.80797672	      3.93896174	     13.69131947	    -51.54077148	    -13.39757633	      7.46744728	    -11.57986259	    -40.38561630	    -90.77707672	     -5.42985249	    -23.52050972	    -16.96596146	     43.93612671	     50.05655670	    -24.67857742
      1.90000000	     11.31340218	     -0.45355910	      1.00866151	     22.69988251	    -33.34058762	    -15.44932461	      8.37672806	     -8.11127663	    -46.44435501	    -10.18281841	     35.60098267	     80.21778870	    -24.62115288	    -36.50878525	    -76.40228271	     -8.80766869
      1.91000000	      9.50334740	     14.56833553	     28.20998955	     -2.08333039	     29.50043869	    -22.32862663	     -0.22996771	     -1.64915836	    -41.63374329	     68.42836761	    -21.91424561	    -15.53881931	     -3.86979294	     24.04261208	    -84.53392029	      1.66596341
      1.92000000	     -1.46660900	     28.03565979	    -16.92981911	    -48.92390060	     41.18336105	    -22.85139847	     -0.90637207	    -12.59471416	    -21.53106117	    498.86605835	     -2.59614325	     14.91436386	     13.74366570	    -38.81193542	   -102.54275513	    -39.36129761
      1.93000000	     -1.06856596	     28.04558945	    -16.79394341	     48.58330917	   -123.67076111	     -2.70118332	      5.18001318	     -0.63189840	    -17.59307098	    -84.85489655	      2.60215354	    -20.62402916	     23.95225143	     14.34744644	    -57.92671585	    -21.04161263
      1.94000000	     -7.03609848	     24.22439194	     15.49526024	    101.59252930	   -191.09255981	     -1.45607209	      2.91245484	      4.79043913	     17.79269791	   -358.35485840	    -13.64181900	     27.72185898	     24.55382919	     12.11488819	   3283.33837891	     -5.75666666
      1.95000000	     -5.26975775	     23.94324684	      5.81863260	    118.16296387	    355.82995605	     -7.94259691	     13.15839481	      8.46998215	     34.97140884	   -118.27512360	     68.19892883	     -9.08285522	     88.41630554	    -72.03916931	    173.83535767	     -1.07154930
      1.96000000	    -12.09970951	     26.07562828	   -126.84084320	     48.41999435	    260.74032593	      3.35926795	     -4.58698273	      1.16097379	     67.96702576	    -47.34304428	     24.06101608	      1.42272449	     15.24683189	      2.38078308	    180.61877441	    -14.36012936
      1.97000000	    -11.92355919	     25.57411766	     85.73243713	    -17.33980942	   -265.93295288	      1.84397340	     -6.65992641	     -2.33784580	     31.11217499	     10.24186993	     79.03913879	     17.10585976	    121.39976501	    -60.81086731	   -295.65011597	   -107.27117920
      1.98000000	    -10.54945183	     18.44497108	    116.63777161	    -66.10330200	   -456.46722412	      9.79356575	     -4.45767498	     -1.91441703	      6.13346291	     13.93063164	     21.60908699	     -9.72318554	     -3.89420366	      0.71872711	   -431.64993286	    103.98419189
      1.99000000	      2.67164731	      7.10058022	     -2.39858413	   -147.32249451	   -142.73786926	     11.04482555	     38.89170074	     -0.43056124	      2.91875672	     35.45676422	     92.67974854	     -7.09569788	     31.66777420	     67.46616364	   -172.05209351	    222.59109497
      2.00000000	      9.00638199	     -4.89940453	    192.51840210	   -104.44596863	    354.45321655	     12.70758915	    -52.77909088	      4.76709223	     10.30235481	    -19.56307602	      5.04789829	    -23.91556931	   -204.76438904	   -166.84815979	    -27.27496147	    148.13999939
      2.01000000	     13.14699078	    -30.97013283	    -78.21295929	    -50.47092056	    305.98452759	     27.42380905	    -18.31264877	     21.80718613	     20.45874786	    -20.25901222	    -22.15526772	    -17.44136238	   -103.38502502	     -8.22534466	     33.13243866	    334.38131714
      2.02000000	     -5.47100449	    -26.77734947	    124.44664001	     20.77114487	     75.73194885	     22.31056213	      5.71617317	     52.66678619	    104.77021027	    -48.28511047	    -17.95546341	    -22.34970093	    -30.47188568	     85.00153351	    184.44822693	    226.24380493
      2.03000000	    -29.72692871	     33.34711838	     29.16915131	    127.94494629	    147.28305054	     36.16477203	     -9.64556026	     41.47459030	    127.27902985	    -58.22898865	      3.44912982	     21.09904480	     10.10380554	     71.57182312	    164.00105286	     71.37861633
      2.04000000	    -41.57369614	     55.68604660	     -6.31170845	    279.15820312	    224.88360596	     80.97031403	     20.44479942	     -7.09067822	    -99.02981567	    -98.44142151	    -11.67462158	     22.33870506	     12.56871700	     -8.60237122	     17.66704369	    -87.68473816
      2.05000000	    -53.62860489	    -79.31267548	   -133.73046875	    343.51855469	    111.84957123	    -54.25435257	    -49.45902634	    -34.57715988	   -157.33140564	    -81.35667419	     -6.47610092	     11.61220932	     55.75263214	    -43.58811951	   -361.67889404	   -725.71118164
      2.06000000	    -58.88136673	   -416.78402710	     -2.42012477	    244.28265381	   -229.77561951	    -11.19445801	      6.05208397	    -50.68052292	   -111.46681976	    -42.74995804	     -8.32897854	    -15.57261086	     57.74389648	    -41.51824951	   -286.39230347	    -67.05869293
      2.07000000	    -44.24549866	   -571.43823242	    131.46760559	     34.98469925	   -526.33172607	    -69.87601471	     17.40881538	    -60.99436951	    -94.51547241	    -23.87414551	    -22.52958107	     -1.01641273	     60.84564590	     -9.34349823	    178.32553101	    -25.68720818
      2.08000000	    -37.17612457	   -346.52526855	   -260.30947876	   -152.18618774	   -538.77685547	    -86.06487274	     13.61762905	    -45.06362534	    -31.45933914	    -62.15914154	      1.50064588	     -9.20388603	     82.30944824	     -1.14521265	    244.33789062	   -154.19139099
      2.09000000	    -28.21955681	    -87.62471771	    114.08740234	   -286.32901001	   -237.84315491	    -16.41593742	      5.31727600	    -31.99294662	      5.38060904	    -13.84579086	    -12.08237267	      1.63621950	     55.22483063	    -22.72834396	   -223.33778381	     40.50486755
      2.10000000	    -23.09826279	    135.97067261	    -60.97356415	   -392.22036743	    -36.47503281	     15.62960052	     11.94826698	    -31.10630798	      4.58904552	     32.93151855	    -28.29521751	      2.33867979	     50.28808594	    -13.67262554	   -645.42901611	    270.46676636
      2.11000000	    -20.30129814	    196.03697205	     77.16001892	   -440.82339478	    -19.88274956	     16.00558853	     -0.08499146	    -47.13484192	      2.69990706	     37.38207245	     -2.58348250	    -19.02682877	     33.54275131	    -17.60643768	   -199.68243408	    461.47338867
      2.12000000	     -9.76661110	     94.90127563	    -34.00106812	   -288.31900024	    -70.12389374	     10.56929111	      3.45886564	    -59.11560059	      0.43739602	      4.67126369	     -3.73262310	    -16.82099152	     31.14048386	     26.41661835	    182.59440613	    551.00714111
      2.13000000	     14.39948463	    142.33032227	    -32.09990692	   -110.39752197	    -90.16225433	     -4.63608599	     -1.66146135	    -53.09862518	     14.40784168	   -271.47976685	     -3.03575230	     -7.09045935	     20.02066422	     18.55797958	    115.05516052	    562.99426270
      2.14000000	     29.94790268	    121.15210724	     67.59862518	     53.81950378	     21.43104553	     -2.58952260	     -6.23591328	    -40.03960419	     22.36249924	    -78.73769379	    -21.20454597	      0.66847396	      0.88395059	     44.34458923	     -7.39691448	    567.94525146
      2.15000000	     44.03403091	     58.15513229	     -6.90620947	    178.68374634	     42.11793137	     -2.17644358	     -0.56511557	    -30.33773994	     13.90121555	    101.23312378	    -16.12427330	      5.93296814	     14.51294518	      0.10203153	    -45.69110870	   -219.30912781
      2.16000000	     38.66748428	    105.63831329	    -15.74853325	    329.88378906	     50.80873871	      8.53074074	     -9.26204014	    -28.07442474	     10.81578159	    139.62442017	      2.94054437	      8.38057995	     21.76106453	    -12.56539154	    -35.80634308	   -467.52285767
      2.17000000	     27.58654976	    183.10162354	      7.44185829	    343.69888306	     22.83346939	      5.89162922	     -7.80381727	    -12.11178875	     13.57619762	     64.61367035	     -2.51109862	      8.81525135	     15.41801643	     16.24699783	    -28.08039856	   -428.37100220
      2.18000000	     -5.62229061	    240.00085449	      0.73835564	    290.87393188	    -17.35254669	      1.31208992	    -13.13358879	     -8.36008072	      0.99103808	     51.16887665	    -22.94750595	     -2.55135441	     28.02364731	    -15.78433609	     -0.04549479	   -298.33050537
      2.19000000	     -5.12685013	    251.29815674	     -1.39230657	    257.77246094	    -41.05675888	     50.20005035	     -7.98231363	     11.61614895	    -10.35403633	     48.28531647	     11.44726753	     -1.51853991	      1.85057688	     -1.71818984	     42.83520508	   -172.07611084
      2.20000000	      7.24129581	    221.97650146	      6.40728188	    141.40238953	    -25.47912598	    -34.52106476	      0.64074790	     16.43387794	    -10.14864063	     41.86287308	    -47.55240631	     -4.46523190	     17.49835014	     -9.07537651	     40.77222061	   -156.98091125
      2.21000000	     13.51643753	    119.56596375	    -32.39400864	     28.36256218	      5.98867655	    -61.11509705	     -2.81939125	     20.07313347	     -7.25076008	     24.34222412	     27.84943008	     -8.98479366	     20.28899765	     -9.44099712	    -19.30369759	   -148.77462769
      2.22000000	     12.35027695	      0.54482365	    -10.35767937	   -103.26909637	    -14.60160828	     54.10176468	      1.67022598	     28.38099098	      9.70714664	      2.88161802	      1.32550216	    -10.03004360	     19.54551506	    -14.56164074	   -101.53444672	   -202.33947754
      2.23000000	     14.31032276	    -88.17867279	   -182.58511353	   -121.74554443	    -59.20652390	    -25.28010750	     -2.62274981	     34.64115524	     35.48162079	      3.75795102	    -14.24681282	    -15.14534378	     -4.51293707	     -8.92562103	   -148.55648804	   -239.71072388
      2.24000000	     20.85148621	   -120.69467163	      0.17333794	   -105.55395508	     23.00438690	      6.33190632	      1.98951983	     36.32389450	     44.55448914	      2.27755499	      6.92349672	    -13.27867317	     17.73728752	      6.18684578	   -141.24826050	   -232.29676819
      2.25000000	     13.93395996	    -58.46914291	    322.34671021	    -82.34359741	    104.48464966	     12.13154888	      2.48967862	     27.56737328	     46.65145111	     17.11510658	     -8.98070145	     -7.19615602	     -1.45229912	      6.32148361	    -71.40565491	    -92.78535461
      2.26000000	     19.83417702	     -5.80022001	     10.64262390	    -33.52001953	    131.83285522	    -50.41994858	      0.74377394	     29.84838867	     17.45569038	     26.67998314	    -26.54045677	    -15.42609787	    -10.45710754	    -17.61938095	    -15.84436226	     30.89584541
